<?xml version="1.0" encoding="UTF-8"?>
<svg xmlns="http://www.w3.org/2000/svg" xmlns:xlink="http://www.w3.org/1999/xlink" width="155px" height="74px" viewBox="0 0 154 74" version="1.1">
<defs>
<linearGradient id="linear0" gradientUnits="userSpaceOnUse" x1="30.119" y1="23.8378" x2="-5.23809" y2="23.8378" gradientTransform="matrix(1.509804,0,0,1.510204,0,0)">
<stop offset="0" style="stop-color:rgb(77.254902%,65.490196%,5.882353%);stop-opacity:1;"/>
<stop offset="1" style="stop-color:rgb(77.254902%,65.490196%,5.882353%);stop-opacity:0;"/>
</linearGradient>
</defs>
<g id="surface1">
<path style=" stroke:none;fill-rule:nonzero;fill:rgb(77.254902%,65.490196%,5.882353%);fill-opacity:1;" d="M 87.492188 51.527344 C 86.605469 51.527344 85.851562 51.367188 85.226562 51.042969 C 84.613281 50.722656 84.085938 50.289062 83.644531 49.746094 L 84.820312 48.644531 C 85.191406 49.097656 85.601562 49.4375 86.042969 49.671875 C 86.496094 49.902344 87.011719 50.019531 87.582031 50.019531 C 88.257812 50.019531 88.765625 49.867188 89.109375 49.566406 C 89.449219 49.261719 89.621094 48.855469 89.621094 48.339844 C 89.621094 47.929688 89.5 47.601562 89.257812 47.359375 C 89.019531 47.117188 88.589844 46.9375 87.976562 46.816406 L 87.039062 46.648438 C 86.011719 46.457031 85.242188 46.121094 84.730469 45.636719 C 84.21875 45.15625 83.960938 44.492188 83.960938 43.644531 C 83.960938 43.183594 84.046875 42.765625 84.21875 42.390625 C 84.398438 42.007812 84.644531 41.691406 84.957031 41.441406 C 85.277344 41.179688 85.667969 40.976562 86.121094 40.835938 C 86.570312 40.695312 87.082031 40.625 87.644531 40.625 C 88.4375 40.625 89.128906 40.765625 89.710938 41.046875 C 90.296875 41.320312 90.792969 41.71875 91.207031 42.242188 L 90.015625 43.296875 C 89.742188 42.945312 89.410156 42.664062 89.019531 42.453125 C 88.625 42.242188 88.136719 42.132812 87.554688 42.132812 C 86.949219 42.132812 86.480469 42.253906 86.148438 42.496094 C 85.816406 42.738281 85.652344 43.089844 85.652344 43.554688 C 85.652344 43.996094 85.785156 44.328125 86.058594 44.550781 C 86.332031 44.761719 86.753906 44.921875 87.328125 45.035156 L 88.261719 45.230469 C 89.320312 45.433594 90.089844 45.773438 90.574219 46.257812 C 91.066406 46.742188 91.3125 47.40625 91.3125 48.25 C 91.3125 48.746094 91.226562 49.191406 91.054688 49.59375 C 90.886719 49.996094 90.632812 50.34375 90.300781 50.636719 C 89.980469 50.917969 89.582031 51.140625 89.109375 51.300781 C 88.636719 51.453125 88.097656 51.527344 87.492188 51.527344 Z M 93.359375 51.347656 L 93.359375 40.804688 L 100.109375 40.804688 L 100.109375 42.316406 L 95.066406 42.316406 L 95.066406 45.246094 L 99.640625 45.246094 L 99.640625 46.757812 L 95.066406 46.757812 L 95.066406 49.835938 L 100.109375 49.835938 L 100.109375 51.347656 Z M 104.015625 51.347656 L 102.3125 51.347656 L 102.3125 40.804688 L 106.855469 40.804688 C 107.800781 40.804688 108.546875 41.09375 109.089844 41.667969 C 109.632812 42.230469 109.90625 43 109.90625 43.976562 C 109.90625 44.730469 109.730469 45.363281 109.375 45.863281 C 109.035156 46.359375 108.527344 46.707031 107.851562 46.90625 L 110.132812 51.347656 L 108.230469 51.347656 L 106.117188 47.089844 L 104.015625 47.089844 Z M 106.734375 45.652344 C 107.167969 45.652344 107.503906 45.542969 107.746094 45.320312 C 107.988281 45.089844 108.109375 44.761719 108.109375 44.339844 L 108.109375 43.613281 C 108.109375 43.191406 107.988281 42.871094 107.746094 42.648438 C 107.503906 42.417969 107.167969 42.300781 106.734375 42.300781 L 104.015625 42.300781 L 104.015625 45.652344 Z M 114.222656 51.347656 L 110.765625 40.804688 L 112.53125 40.804688 L 114.207031 46.015625 L 115.21875 49.6875 L 115.277344 49.6875 L 116.304688 46.015625 L 117.980469 40.804688 L 119.703125 40.804688 L 116.199219 51.347656 Z M 120.820312 51.347656 L 120.820312 49.957031 L 122.253906 49.957031 L 122.253906 42.195312 L 120.820312 42.195312 L 120.820312 40.804688 L 125.410156 40.804688 L 125.410156 42.195312 L 123.960938 42.195312 L 123.960938 49.957031 L 125.410156 49.957031 L 125.410156 51.347656 Z M 131.507812 51.527344 C 130.128906 51.527344 129.046875 51.066406 128.261719 50.140625 C 127.476562 49.203125 127.085938 47.847656 127.085938 46.078125 C 127.085938 45.191406 127.183594 44.410156 127.386719 43.734375 C 127.589844 43.0625 127.878906 42.492188 128.261719 42.027344 C 128.644531 41.566406 129.109375 41.21875 129.652344 40.988281 C 130.203125 40.746094 130.824219 40.625 131.507812 40.625 C 132.425781 40.625 133.191406 40.824219 133.804688 41.230469 C 134.425781 41.632812 134.914062 42.226562 135.269531 43.011719 L 133.832031 43.796875 C 133.652344 43.292969 133.371094 42.894531 132.988281 42.601562 C 132.617188 42.300781 132.121094 42.148438 131.507812 42.148438 C 130.691406 42.148438 130.054688 42.425781 129.589844 42.980469 C 129.128906 43.535156 128.898438 44.300781 128.898438 45.277344 L 128.898438 46.875 C 128.898438 47.851562 129.128906 48.617188 129.589844 49.171875 C 130.054688 49.726562 130.691406 50.003906 131.507812 50.003906 C 132.140625 50.003906 132.65625 49.839844 133.046875 49.519531 C 133.449219 49.1875 133.75 48.765625 133.9375 48.25 L 135.3125 49.082031 C 134.960938 49.847656 134.46875 50.445312 133.832031 50.878906 C 133.199219 51.3125 132.425781 51.527344 131.507812 51.527344 Z M 137.121094 51.347656 L 137.121094 40.804688 L 143.871094 40.804688 L 143.871094 42.316406 L 138.828125 42.316406 L 138.828125 45.246094 L 143.402344 45.246094 L 143.402344 46.757812 L 138.828125 46.757812 L 138.828125 49.835938 L 143.871094 49.835938 L 143.871094 51.347656 Z M 149.226562 51.527344 C 148.339844 51.527344 147.585938 51.367188 146.960938 51.042969 C 146.347656 50.722656 145.820312 50.289062 145.378906 49.746094 L 146.554688 48.644531 C 146.925781 49.097656 147.335938 49.4375 147.777344 49.671875 C 148.230469 49.902344 148.742188 50.019531 149.316406 50.019531 C 149.992188 50.019531 150.5 49.867188 150.84375 49.566406 C 151.183594 49.261719 151.355469 48.855469 151.355469 48.339844 C 151.355469 47.929688 151.234375 47.601562 150.992188 47.359375 C 150.753906 47.117188 150.324219 46.9375 149.710938 46.816406 L 148.773438 46.648438 C 147.746094 46.457031 146.976562 46.121094 146.464844 45.636719 C 145.949219 45.15625 145.695312 44.492188 145.695312 43.644531 C 145.695312 43.183594 145.78125 42.765625 145.949219 42.390625 C 146.132812 42.007812 146.378906 41.691406 146.691406 41.441406 C 147.011719 41.179688 147.398438 40.976562 147.851562 40.835938 C 148.304688 40.695312 148.8125 40.625 149.378906 40.625 C 150.171875 40.625 150.863281 40.765625 151.445312 41.046875 C 152.03125 41.320312 152.527344 41.71875 152.941406 42.242188 L 151.75 43.296875 C 151.476562 42.945312 151.144531 42.664062 150.753906 42.453125 C 150.359375 42.242188 149.871094 42.132812 149.289062 42.132812 C 148.683594 42.132812 148.214844 42.253906 147.882812 42.496094 C 147.550781 42.738281 147.386719 43.089844 147.386719 43.554688 C 147.386719 43.996094 147.519531 44.328125 147.792969 44.550781 C 148.066406 44.761719 148.488281 44.921875 149.0625 45.035156 L 149.996094 45.230469 C 151.054688 45.433594 151.824219 45.773438 152.308594 46.257812 C 152.800781 46.742188 153.046875 47.40625 153.046875 48.25 C 153.046875 48.746094 152.960938 49.191406 152.789062 49.59375 C 152.617188 49.996094 152.367188 50.34375 152.035156 50.636719 C 151.710938 50.917969 151.316406 51.140625 150.84375 51.300781 C 150.371094 51.453125 149.832031 51.527344 149.226562 51.527344 Z M 149.226562 51.527344 "/>
<path style=" stroke:none;fill-rule:nonzero;fill:rgb(77.254902%,65.490196%,5.882353%);fill-opacity:1;" d="M 90.625 35.007812 C 88.664062 35.007812 87.144531 34.328125 86.074219 32.96875 C 85.003906 31.59375 84.464844 29.5625 84.464844 26.875 C 84.464844 24.199219 85.003906 22.164062 86.074219 20.757812 C 87.144531 19.351562 88.664062 18.652344 90.625 18.652344 C 91.894531 18.652344 92.957031 18.953125 93.820312 19.558594 C 94.695312 20.160156 95.375 20.984375 95.859375 22.027344 L 94.746094 22.683594 C 94.402344 21.824219 93.871094 21.144531 93.164062 20.644531 C 92.46875 20.132812 91.621094 19.875 90.625 19.875 C 89.144531 19.875 87.992188 20.402344 87.160156 21.460938 C 86.332031 22.515625 85.914062 24.027344 85.914062 25.992188 L 85.914062 27.78125 C 85.914062 29.726562 86.332031 31.214844 87.160156 32.242188 C 87.992188 33.269531 89.144531 33.785156 90.625 33.785156 C 91.683594 33.785156 92.566406 33.519531 93.277344 32.992188 C 93.984375 32.445312 94.515625 31.722656 94.859375 30.816406 L 95.96875 31.472656 C 95.503906 32.558594 94.816406 33.421875 93.910156 34.054688 C 93.003906 34.6875 91.910156 35.007812 90.625 35.007812 Z M 99.257812 34.734375 L 99.257812 18.921875 L 100.617188 18.921875 L 100.617188 33.535156 L 107.59375 33.535156 L 107.59375 34.734375 Z M 110.382812 34.734375 L 110.382812 18.921875 L 119.625 18.921875 L 119.625 20.125 L 111.742188 20.125 L 111.742188 26.105469 L 119.238281 26.105469 L 119.238281 27.304688 L 111.742188 27.304688 L 111.742188 33.535156 L 119.625 33.535156 L 119.625 34.734375 Z M 133.285156 34.734375 L 131.5625 29.820312 L 124.835938 29.820312 L 123.117188 34.734375 L 121.757812 34.734375 L 127.351562 18.921875 L 129.09375 18.921875 L 134.710938 34.734375 Z M 128.234375 20.214844 L 128.144531 20.214844 L 125.175781 28.640625 L 131.199219 28.640625 Z M 138.921875 20.78125 L 138.855469 20.78125 L 138.855469 34.734375 L 137.542969 34.734375 L 137.542969 18.921875 L 139.242188 18.921875 L 147.550781 32.878906 L 147.621094 32.878906 L 147.621094 18.921875 L 148.933594 18.921875 L 148.933594 34.734375 L 147.234375 34.734375 Z M 138.921875 20.78125 "/>
<path style=" stroke:none;fill-rule:nonzero;fill:url(#linear0);" d="M 17.199219 51.925781 C 15.007812 51.925781 13.011719 51.554688 11.207031 50.816406 C 9.4375 50.042969 7.90625 48.929688 6.617188 47.480469 C 5.363281 46 4.378906 44.179688 3.671875 42.019531 C 2.996094 39.828125 2.65625 37.316406 2.65625 34.480469 C 2.65625 31.644531 2.996094 29.148438 3.671875 26.992188 C 4.378906 24.800781 5.363281 22.980469 6.617188 21.53125 C 7.90625 20.046875 9.4375 18.9375 11.207031 18.195312 C 13.011719 17.421875 15.007812 17.035156 17.199219 17.035156 C 19.390625 17.035156 21.371094 17.421875 23.140625 18.195312 C 24.945312 18.9375 26.476562 20.046875 27.730469 21.53125 C 29.019531 22.980469 30.003906 24.800781 30.679688 26.992188 C 31.386719 29.148438 31.742188 31.644531 31.742188 34.480469 C 31.742188 37.316406 31.386719 39.828125 30.679688 42.019531 C 30.003906 44.179688 29.019531 46 27.730469 47.480469 C 26.476562 48.929688 24.945312 50.042969 23.140625 50.816406 C 21.371094 51.554688 19.390625 51.925781 17.199219 51.925781 Z M 17.199219 47.046875 C 18.488281 47.046875 19.664062 46.820312 20.726562 46.371094 C 21.820312 45.917969 22.738281 45.273438 23.480469 44.4375 C 24.253906 43.566406 24.847656 42.519531 25.269531 41.296875 C 25.6875 40.070312 25.894531 38.683594 25.894531 37.140625 L 25.894531 31.824219 C 25.894531 30.277344 25.6875 28.890625 25.269531 27.667969 C 24.847656 26.441406 24.253906 25.410156 23.480469 24.574219 C 22.738281 23.703125 21.820312 23.042969 20.726562 22.59375 C 19.664062 22.140625 18.488281 21.917969 17.199219 21.917969 C 15.878906 21.917969 14.6875 22.140625 13.625 22.59375 C 12.5625 23.042969 11.644531 23.703125 10.871094 24.574219 C 10.128906 25.410156 9.550781 26.441406 9.132812 27.667969 C 8.710938 28.890625 8.503906 30.277344 8.503906 31.824219 L 8.503906 37.140625 C 8.503906 38.683594 8.710938 40.070312 9.132812 41.296875 C 9.550781 42.519531 10.128906 43.566406 10.871094 44.4375 C 11.644531 45.273438 12.5625 45.917969 13.625 46.371094 C 14.6875 46.820312 15.878906 47.046875 17.199219 47.046875 Z M 40.386719 32.691406 L 36.667969 25.539062 L 36.519531 25.539062 L 36.519531 51.347656 L 31.304688 51.347656 L 31.304688 17.613281 L 37.390625 17.613281 L 48.40625 36.269531 L 52.125 43.421875 L 52.269531 43.421875 L 52.269531 17.613281 L 57.488281 17.613281 L 57.488281 51.347656 L 51.402344 51.347656 Z M 58.546875 51.347656 L 58.546875 17.613281 L 80.140625 17.613281 L 80.140625 22.449219 L 64.003906 22.449219 L 64.003906 31.824219 L 78.644531 31.824219 L 78.644531 36.65625 L 64.003906 36.65625 L 64.003906 46.515625 L 80.140625 46.515625 L 80.140625 51.347656 Z M 58.546875 51.347656 "/>
</g>
</svg>
